<svg xmlns="http://www.w3.org/2000/svg" viewBox="0 0 389.23 243"><defs><style>.cls-1{fill:#343b47;}.cls-2{fill:#f5f4f1;}.cls-3{fill:none;stroke:#343b47;stroke-miterlimit:10;}</style></defs><title>Asset 1</title><g id="Layer_2" data-name="Layer 2"><g id="Layer_1-2" data-name="Layer 1"><path class="cls-1" d="M105,89a15,15,0,1,1,15-15A15,15,0,0,1,105,89Z"/><path class="cls-2" d="M105,87a13,13,0,1,1,13-13A13,13,0,0,1,105,87Z"/><circle class="cls-1" cx="100" cy="81" r="2"/><circle class="cls-2" cx="100" cy="81" r="1"/><circle class="cls-1" cx="114" cy="73" r="2"/><circle class="cls-2" cx="114" cy="73" r="1"/><circle class="cls-1" cx="98" cy="66" r="1"/><circle class="cls-1" cx="109" cy="67" r="3"/><circle class="cls-2" cx="109" cy="67" r="2"/><path class="cls-1" d="M317.11,77.53a1,1,0,0,1,0-1.41h0a1,1,0,0,1,1.41,0l9.9,9.9a1,1,0,0,1,0,1.41h0a1,1,0,0,1-1.41,0Z"/><path class="cls-1" d="M325.66,76.75a1,1,0,0,1,0-1.41h0a1,1,0,0,1,1.41,0l9.9,9.9a1,1,0,0,1,0,1.41h0a1,1,0,0,1-1.41,0Z"/><path class="cls-1" d="M317.75,84.66a1,1,0,0,0-1.41,0h0a1,1,0,0,0,0,1.41l9.9,9.9a1,1,0,0,0,1.41,0h0a1,1,0,0,0,0-1.41Z"/><circle class="cls-1" cx="331.61" cy="90.61" r="7.62" transform="translate(33.06 261.02) rotate(-45)"/><circle class="cls-2" cx="331.61" cy="90.61" r="5.83" transform="translate(33.06 261.02) rotate(-45)"/><rect class="cls-1" x="312" y="217.5" width="7" height="2"/><rect class="cls-1" x="306" y="217.5" width="4" height="2"/><rect class="cls-1" x="290" y="217.5" width="14" height="2"/><rect class="cls-1" x="321" y="217.5" width="2" height="2"/><rect class="cls-1" x="325" y="217.5" width="2" height="2"/><rect class="cls-1" x="52" y="174" width="29" height="2"/><circle class="cls-1" cx="48" cy="175" r="1"/><circle class="cls-1" cx="44" cy="175" r="1"/><rect class="cls-1" x="216" y="82" width="2" height="4"/><rect class="cls-1" x="211" y="87" width="4" height="2"/><rect class="cls-1" x="216" y="90" width="2" height="4"/><rect class="cls-1" x="219" y="87" width="4" height="2"/><rect class="cls-1" x="103" y="208" width="11" height="2"/><rect class="cls-1" x="98" y="208" width="2" height="2"/><rect class="cls-1" x="94" y="208" width="2" height="2"/><rect class="cls-1" x="358.23" y="140" width="10" height="2"/><rect class="cls-1" x="370.23" y="140" width="2" height="2"/><rect class="cls-1" x="374.23" y="140" width="2" height="2"/><polygon class="cls-1" points="348.23 140 339.23 140 339.23 142 348.23 142 356.23 142 356.23 140 348.23 140"/><rect class="cls-1" x="46.5" y="216" width="10" height="2"/><rect class="cls-1" x="41.5" y="216" width="3" height="2"/><rect class="cls-1" x="35.5" y="216" width="4" height="2"/><rect class="cls-1" x="32.5" y="216" width="1" height="2"/><rect class="cls-1" x="162" y="85" width="19" height="2"/><rect class="cls-1" x="169" y="90" width="8" height="2"/><rect class="cls-1" x="158" y="85" width="2" height="2"/><rect class="cls-1" x="270" y="48" width="25" height="2"/><rect class="cls-1" x="297" y="48" width="8" height="2"/><rect class="cls-1" x="307" y="48" width="2" height="2"/><rect class="cls-1" x="270" y="52" width="9" height="2"/><rect class="cls-1" x="281" y="52" width="2" height="2"/><rect class="cls-1" x="22.5" y="174" width="28" height="2"/><rect class="cls-1" x="18.5" y="174" width="2" height="2"/><rect class="cls-1" x="14.5" y="174" width="2" height="2"/><rect class="cls-1" x="343.23" y="189" width="37" height="2"/><rect class="cls-1" x="382.23" y="189" width="3" height="2"/><rect class="cls-1" x="387.23" y="189" width="2" height="2"/><rect class="cls-1" x="339.23" y="189" width="2" height="2"/><circle class="cls-1" cx="2" cy="140" r="2"/><circle class="cls-2" cx="196.5" cy="75" r="1"/><circle class="cls-1" cx="42" cy="42" r="2"/><circle class="cls-2" cx="42" cy="42" r="1"/><circle class="cls-1" cx="181" cy="40" r="2"/><circle class="cls-2" cx="181" cy="40" r="1"/><circle class="cls-1" cx="310.5" cy="188" r="2"/><circle class="cls-2" cx="310.5" cy="188" r="1"/><circle class="cls-3" cx="383" cy="38" r="2"/><circle class="cls-2" cx="383" cy="38" r="1"/><path class="cls-1" d="M276.5,74.5a2,2,0,0,1-2,2,2,2,0,0,1,2,2,2,2,0,0,1,2-2A2,2,0,0,1,276.5,74.5Z"/><path class="cls-1" d="M281.5,160.5a2,2,0,0,1-2,2,2,2,0,0,1,2,2,2,2,0,0,1,2-2A2,2,0,0,1,281.5,160.5Z"/><path class="cls-1" d="M141,223a2,2,0,0,1-2,2,2,2,0,0,1,2,2,2,2,0,0,1,2-2A2,2,0,0,1,141,223Z"/><rect class="cls-1" x="302.5" y="200" width="1" height="1"/><rect class="cls-1" x="301.5" y="201" width="1" height="1"/><rect class="cls-1" x="302.5" y="202" width="1" height="1"/><rect class="cls-1" x="303.5" y="201" width="1" height="1"/><rect class="cls-1" x="136" y="124" width="3" height="2"/><rect class="cls-1" x="132" y="124" width="2" height="2"/><polygon class="cls-1" points="213 2 212 2 212 0 211 0 210 0 210 2 208 2 208 3 208 4 210 4 210 5 210 6 212 6 212 5 212 4 214 4 214 3 214 2 213 2"/><rect class="cls-1" x="256.5" y="59.5" width="1" height="3"/><rect class="cls-1" x="255.5" y="60.5" width="3" height="1"/><circle class="cls-1" cx="278.5" cy="92" r="1"/><path class="cls-1" d="M55,189a2,2,0,0,1-2,2,2,2,0,0,1,2,2,2,2,0,0,1,2-2A2,2,0,0,1,55,189Z"/><path class="cls-1" d="M273.5,111a2,2,0,0,1-2,2,2,2,0,0,1,2,2,2,2,0,0,1,2-2A2,2,0,0,1,273.5,111Z"/><path class="cls-1" d="M151.28,140a2,2,0,0,1-2,2,2,2,0,0,1,2,2,2,2,0,0,1,2-2A2,2,0,0,1,151.28,140Z"/><rect class="cls-1" x="111.04" y="35.67" width="3" height="1" transform="translate(7.38 90.17) rotate(-45)"/><rect class="cls-1" x="106.79" y="39.91" width="3" height="1" transform="translate(3.14 88.41) rotate(-45)"/><rect class="cls-1" x="112.04" y="38.91" width="1" height="3" transform="translate(4.38 91.41) rotate(-45)"/><rect class="cls-1" x="107.79" y="34.67" width="1" height="3" transform="translate(6.14 87.17) rotate(-45)"/><rect class="cls-1" x="154" y="69" width="1" height="2"/><rect class="cls-1" x="154" y="74" width="1" height="2"/><rect class="cls-1" x="156" y="72" width="2" height="1"/><rect class="cls-1" x="151" y="72" width="2" height="1"/><rect class="cls-1" x="130.5" y="68" width="1" height="1"/><rect class="cls-1" x="130.5" y="70" width="1" height="1"/><rect class="cls-1" x="131.5" y="69" width="1" height="1"/><rect class="cls-1" x="129.5" y="69" width="1" height="1"/><rect class="cls-1" x="185.62" y="58.21" width="1" height="1" transform="translate(13 148.8) rotate(-45)"/><rect class="cls-1" x="184.21" y="59.62" width="1" height="1" transform="translate(11.59 148.22) rotate(-45)"/><rect class="cls-1" x="185.62" y="59.62" width="1" height="1" transform="translate(12 149.22) rotate(-45)"/><rect class="cls-1" x="184.21" y="58.21" width="1" height="1" transform="translate(12.59 147.8) rotate(-45)"/><rect class="cls-1" x="235" y="129.85" width="1" height="1"/><rect class="cls-1" x="234" y="130.85" width="1" height="1"/><rect class="cls-1" x="235" y="131.85" width="1" height="1"/><rect class="cls-1" x="236" y="130.85" width="1" height="1"/><rect class="cls-1" x="154" y="21" width="2" height="2"/><rect class="cls-1" x="165.5" y="112" width="2" height="2"/><rect class="cls-1" x="118.5" y="182" width="21" height="2"/><rect class="cls-1" x="141.5" y="182" width="5" height="2"/><rect class="cls-1" x="125.5" y="187" width="6" height="2"/><rect class="cls-1" x="67" y="96" width="28" height="2"/><rect class="cls-1" x="59" y="96" width="6" height="2"/><rect class="cls-1" x="55" y="96" width="2" height="2"/><rect class="cls-1" x="65" y="148" width="2" height="2"/><rect class="cls-1" x="35" y="148" width="25" height="2"/><rect class="cls-1" x="31" y="148" width="2" height="2"/><rect class="cls-1" x="62.77" y="132.41" width="2" height="1" transform="translate(-75.31 84.02) rotate(-45)"/><rect class="cls-1" x="63.27" y="135.45" width="1" height="2" transform="translate(-77.81 85.06) rotate(-45)"/><rect class="cls-1" x="59.73" y="131.91" width="1" height="2" transform="translate(-76.34 81.52) rotate(-45)"/><rect class="cls-1" x="59.23" y="135.95" width="2" height="1" transform="translate(-78.84 82.56) rotate(-45)"/><polygon class="cls-1" points="246.76 197 249.38 191.76 252 197 246.76 197"/><polygon class="cls-2" points="249.38 194 248.38 196 250.38 196 249.38 194"/><polygon class="cls-1" points="59.62 81 57 86.24 54.38 81 59.62 81"/><polygon class="cls-2" points="57 84 58 82 56 82 57 84"/><rect class="cls-1" x="271" y="123" width="33" height="2"/><rect class="cls-1" x="306" y="123" width="4" height="2"/><rect class="cls-1" x="296" y="86" width="2" height="4"/><rect class="cls-1" x="296" y="92" width="2" height="4"/><rect class="cls-1" x="299" y="90" width="9" height="2"/><rect class="cls-1" x="293" y="90" width="2" height="2"/><path class="cls-1" d="M191,123a12,12,0,1,1,12-12A12,12,0,0,1,191,123Z"/><path class="cls-2" d="M191,121a10,10,0,1,1,10-10A10,10,0,0,1,191,121Z"/><circle class="cls-1" cx="191" cy="111" r="8"/><circle class="cls-2" cx="191" cy="111" r="6"/><circle class="cls-1" cx="201" cy="106" r="3"/><circle class="cls-2" cx="201" cy="106" r="1.21"/><ellipse class="cls-1" cx="186.66" cy="110.33" rx="1.44" ry="0.99" transform="matrix(0.13, -0.99, 0.99, 0.13, 53.5, 281.45)"/><ellipse class="cls-2" cx="186.66" cy="110.33" rx="0.85" ry="0.58" transform="translate(53.49 281.44) rotate(-82.69)"/><ellipse class="cls-1" cx="191.26" cy="106.47" rx="2.33" ry="1.6"/><ellipse class="cls-2" cx="191.26" cy="106.47" rx="1.38" ry="0.95"/><ellipse class="cls-1" cx="195.1" cy="114.42" rx="1.79" ry="1.23" transform="translate(-26.06 161.82) rotate(-42.49)"/><ellipse class="cls-2" cx="195.1" cy="114.42" rx="1.06" ry="0.73" transform="translate(-26.06 161.82) rotate(-42.49)"/><ellipse class="cls-1" cx="188.08" cy="115.25" rx="0.82" ry="1.2" transform="translate(-7.14 217.93) rotate(-59.24)"/><ellipse class="cls-2" cx="188.08" cy="115.25" rx="0.49" ry="0.71" transform="translate(-7.14 217.94) rotate(-59.24)"/><path class="cls-1" d="M209.28,239l-17.45-38.24a2.91,2.91,0,1,0-5.55-.36L167.95,239H166v2h1.12l1.88.68.28-.68H171v-2h-.91l17.57-36.73a2.88,2.88,0,0,0,.34.18V239h-1v2h4v-2h-1V202.5l.28-.1L207.15,239H206v2h1.87l.25.68L210,241h1v-2Z"/><circle class="cls-2" cx="147" cy="200" r="1"/><polygon class="cls-1" points="232.04 169.44 232.91 168.94 226.91 158.55 226.04 159.05 225.04 157.31 212.05 164.81 213.05 166.55 171.48 190.55 172.98 193.14 152.2 205.14 151.2 203.41 149.46 204.41 148.46 202.68 149.33 202.18 148.33 200.45 144 202.95 145 204.68 145.87 204.18 146.87 205.91 147.87 207.64 150.87 212.84 173.38 199.84 173.88 200.71 176.48 199.21 177.48 200.94 219.05 176.94 220.05 178.67 233.04 171.17 232.04 169.44"/><polygon class="cls-1" points="180.87 182.81 181.37 183.68 179.64 184.68 180.14 185.55 185.34 182.55 184.84 181.68 186.57 180.68 186.07 179.81 192.13 176.31 190.63 173.72 171.58 184.72 173.08 187.31 180.87 182.81"/><rect class="cls-2" x="173.27" y="179.74" width="44" height="8" transform="translate(-65.71 122.25) rotate(-30)"/><rect class="cls-2" x="217.05" y="161.99" width="11" height="12" transform="translate(-54.18 133.78) rotate(-30)"/><rect class="cls-1" x="214.97" y="165.23" width="1" height="1" transform="translate(-54 129.93) rotate(-30)"/><rect class="cls-1" x="216.33" y="165.59" width="1" height="1" transform="translate(-54 130.67) rotate(-30)"/><rect class="cls-1" x="215.97" y="166.96" width="1" height="1" transform="translate(-54.73 130.66) rotate(-30)"/><rect class="cls-1" x="217.33" y="167.33" width="1" height="1" transform="translate(-54.73 131.4) rotate(-30)"/><rect class="cls-1" x="216.97" y="168.69" width="1" height="1" transform="translate(-55.46 131.39) rotate(-30)"/><rect class="cls-1" x="218.33" y="169.06" width="1" height="1" transform="translate(-55.46 132.14) rotate(-30)"/><rect class="cls-1" x="217.97" y="170.42" width="1" height="1" transform="translate(-56.19 132.12) rotate(-30)"/><rect class="cls-1" x="219.33" y="170.79" width="1" height="1" transform="translate(-56.19 132.87) rotate(-30)"/><rect class="cls-1" x="218.97" y="172.16" width="1" height="1" transform="translate(-56.92 132.85) rotate(-30)"/><rect class="cls-1" x="220.33" y="172.52" width="1" height="1" transform="translate(-56.93 133.6) rotate(-30)"/><rect class="cls-1" x="219.97" y="173.89" width="1" height="1" transform="translate(-57.66 133.59) rotate(-30)"/><rect class="cls-1" x="221.33" y="174.25" width="1" height="1" transform="translate(-57.66 134.33) rotate(-30)"/><rect class="cls-2" x="149.29" y="201.49" width="27" height="2" transform="translate(-79.44 108.52) rotate(-30)"/><rect class="cls-1" x="189.45" y="172.76" width="3" height="5" transform="translate(-62.05 118.95) rotate(-30)"/><rect class="cls-1" x="172.06" y="182.51" width="4" height="5" transform="translate(-69.19 111.82) rotate(-30)"/><rect class="cls-2" x="175.72" y="179.51" width="14" height="1" transform="translate(-65.53 115.48) rotate(-30)"/><rect class="cls-2" x="190.2" y="173.83" width="1" height="2" transform="translate(-61.87 118.78) rotate(-30)"/><rect class="cls-2" x="172.88" y="183.83" width="1" height="2" transform="translate(-69.19 111.45) rotate(-30)"/><rect class="cls-1" x="150.78" y="208.06" width="1" height="1" transform="translate(-84.01 103.59) rotate(-30)"/><rect class="cls-1" x="152.15" y="208.42" width="1" height="1" transform="translate(-84.01 104.32) rotate(-30)"/><rect class="cls-1" x="152.51" y="207.06" width="1" height="1" transform="translate(-83.28 104.31) rotate(-30)"/><rect class="cls-1" x="153.88" y="207.42" width="1" height="1" transform="translate(-83.28 105.05) rotate(-30)"/><rect class="cls-1" x="177.9" y="197.02" width="1" height="1" transform="translate(-74.86 115.66) rotate(-30)"/><rect class="cls-1" x="178.26" y="195.66" width="1" height="1" transform="translate(-74.13 115.65) rotate(-30)"/><rect class="cls-1" x="179.63" y="196.02" width="1" height="1" transform="translate(-74.13 116.4) rotate(-30)"/><rect class="cls-1" x="179.99" y="194.66" width="1" height="1" transform="translate(-73.4 116.4) rotate(-30)"/><rect class="cls-1" x="181.36" y="195.02" width="1" height="1" transform="translate(-73.4 117.13) rotate(-30)"/><rect class="cls-1" x="181.73" y="193.66" width="1" height="1" transform="translate(-72.66 117.11) rotate(-30)"/><rect class="cls-1" x="183.09" y="194.02" width="1" height="1" transform="translate(-72.67 117.86) rotate(-30)"/><rect class="cls-1" x="183.46" y="192.66" width="1" height="1" transform="translate(-71.93 117.86) rotate(-30)"/><rect class="cls-1" x="184.82" y="193.02" width="1" height="1" transform="translate(-71.93 118.59) rotate(-30)"/><rect class="cls-1" x="185.19" y="191.66" width="1" height="1" transform="translate(-71.2 118.58) rotate(-30)"/><rect class="cls-1" x="186.56" y="192.02" width="1" height="1" transform="translate(-71.2 119.32) rotate(-30)"/><rect class="cls-1" x="186.92" y="190.66" width="1" height="1" transform="translate(-70.47 119.32) rotate(-30)"/><rect class="cls-1" x="188.29" y="191.02" width="1" height="1" transform="translate(-70.47 120.06) rotate(-30)"/><rect class="cls-1" x="188.65" y="189.66" width="1" height="1" transform="translate(-69.73 120.04) rotate(-30)"/><rect class="cls-1" x="190.02" y="190.02" width="1" height="1" transform="translate(-69.74 120.79) rotate(-30)"/><rect class="cls-1" x="190.39" y="188.66" width="1" height="1" transform="translate(-69.01 120.79) rotate(-30)"/><rect class="cls-1" x="191.75" y="189.02" width="1" height="1" transform="translate(-69.01 121.52) rotate(-30)"/><rect class="cls-1" x="192.12" y="187.66" width="1" height="1" transform="translate(-68.27 121.51) rotate(-30)"/><rect class="cls-1" x="193.48" y="188.02" width="1" height="1" transform="translate(-68.27 122.25) rotate(-30)"/><rect class="cls-1" x="193.85" y="186.66" width="1" height="1" transform="translate(-67.54 122.25) rotate(-30)"/><rect class="cls-1" x="195.22" y="187.02" width="1" height="1" transform="translate(-67.54 122.98) rotate(-30)"/><rect class="cls-1" x="195.58" y="185.66" width="1" height="1" transform="translate(-66.81 122.97) rotate(-30)"/><rect class="cls-1" x="196.95" y="186.02" width="1" height="1" transform="translate(-66.81 123.72) rotate(-30)"/><rect class="cls-1" x="197.31" y="184.66" width="1" height="1" transform="translate(-66.08 123.72) rotate(-30)"/><rect class="cls-1" x="198.68" y="185.02" width="1" height="1" transform="translate(-66.08 124.45) rotate(-30)"/><rect class="cls-1" x="199.05" y="183.66" width="1" height="1" transform="translate(-65.34 124.44) rotate(-30)"/><rect class="cls-1" x="200.41" y="184.02" width="1" height="1" transform="translate(-65.34 125.18) rotate(-30)"/><rect class="cls-1" x="200.78" y="182.66" width="1" height="1" transform="translate(-64.61 125.18) rotate(-30)"/><rect class="cls-1" x="202.14" y="183.02" width="1" height="1" transform="translate(-64.61 125.91) rotate(-30)"/><rect class="cls-1" x="202.51" y="181.66" width="1" height="1" transform="translate(-63.88 125.9) rotate(-30)"/><rect class="cls-1" x="203.88" y="182.02" width="1" height="1" transform="translate(-63.88 126.65) rotate(-30)"/><rect class="cls-1" x="204.24" y="180.66" width="1" height="1" transform="translate(-63.15 126.65) rotate(-30)"/><rect class="cls-1" x="205.61" y="181.02" width="1" height="1" transform="translate(-63.15 127.36) rotate(-30)"/><rect class="cls-1" x="205.97" y="179.66" width="1" height="1" transform="translate(-62.42 127.38) rotate(-30)"/><rect class="cls-1" x="207.34" y="180.02" width="1" height="1" transform="translate(-62.42 128.11) rotate(-30)"/><rect class="cls-1" x="207.71" y="178.66" width="1" height="1" transform="translate(-61.68 128.11) rotate(-30)"/><rect class="cls-1" x="209.07" y="179.02" width="1" height="1" transform="translate(-61.68 128.83) rotate(-30)"/><rect class="cls-1" x="209.44" y="177.66" width="1" height="1" transform="translate(-60.95 128.84) rotate(-30)"/><rect class="cls-1" x="210.8" y="178.02" width="1" height="1" transform="translate(-60.95 129.57) rotate(-30)"/><rect class="cls-1" x="211.17" y="176.66" width="1" height="1" transform="translate(-60.22 129.57) rotate(-30)"/><rect class="cls-1" x="212.54" y="177.02" width="1" height="1" transform="translate(-60.22 130.29) rotate(-30)"/><rect class="cls-1" x="212.9" y="175.66" width="1" height="1" transform="translate(-59.49 130.31) rotate(-30)"/><rect class="cls-1" x="214.27" y="176.02" width="1" height="1" transform="translate(-59.49 131.04) rotate(-30)"/><rect class="cls-1" x="214.63" y="174.66" width="1" height="1" transform="translate(-58.76 131.04) rotate(-30)"/><rect class="cls-1" x="186.64" y="185.13" width="5" height="2" transform="translate(-67.72 119.5) rotate(-30)"/><rect class="cls-1" x="185.47" y="185.51" width="2" height="2" transform="translate(-68.27 118.22) rotate(-30)"/><polygon class="cls-1" points="183.54 197.44 184.54 199.17 185.41 198.67 185.91 199.54 189.37 197.54 189.87 198.4 190.74 197.9 191.74 199.63 193.47 198.63 192.47 196.9 193.34 196.4 192.84 195.54 196.3 193.54 195.8 192.67 196.67 192.17 195.67 190.44 183.54 197.44"/><rect class="cls-2" x="185.46" y="195.12" width="1" height="3" transform="translate(-73.4 119.32) rotate(-30)"/><circle class="cls-1" cx="183.34" cy="179.08" r="2" transform="translate(-64.98 115.66) rotate(-30)"/><circle class="cls-2" cx="183.34" cy="179.08" r="1" transform="translate(-64.98 115.66) rotate(-30)"/><rect class="cls-1" x="193.97" y="176.19" width="21" height="1" transform="translate(-60.95 125.91) rotate(-30)"/><polygon class="cls-1" points="240 241 240 237 239 237 239 239 238 239 238 238 237 238 237 237 236 237 236 239 235 239 235 238 234 238 234 240 233 240 233 237 232 237 232 238 231 238 231 237 230 237 230 236 229 236 229 235 228 235 228 238 227 238 227 234 226 234 226 237 225 237 225 235 224 235 224 236 223 236 223 238 222 238 222 237 221 237 221 239 220 239 220 238 219 238 219 239 218 239 218 235 217 235 217 237 216 237 216 236 215 236 215 237 214 237 214 236 213 236 213 237 212 237 212 235 211 235 211 238 210 238 210 236 209 236 209 238 208 238 208 241 206 241 206 238 205 238 205 234 204 234 204 237 203 237 203 238 202 238 202 237 201 237 201 236 200 236 200 235 199 235 199 236 198 236 198 237 197 237 197 238 196 238 196 237 195 237 195 238 194 238 194 241 193 241 193 237 192 237 192 236 191 236 191 238 190 238 190 236 189 236 189 237 188 237 188 241 187 241 187 236 186 236 186 237 185 237 185 238 184 238 183 238 183 237 182 237 182 236 181 236 181 239 180 239 180 237 179 237 179 236 178 236 178 238 177 238 177 236 176 236 176 237 175 237 175 239 174 239 174 238 173 238 173 237 172 237 172 238 171 238 171 237 170 237 170 236 169 236 169 235 168 235 168 236 167 236 167 237 166 237 166 238 165 238 165 237 164 237 164 234 163 234 163 238 162 238 162 240 161 240 161 239 160 239 160 238 159 238 159 236 158 236 158 238 157 238 157 236 156 236 156 238 155 238 155 235 154 235 154 237 153 237 153 236 152 236 152 237 151 237 151 235 150 235 150 236 149 236 149 237 148 237 148 239 147 239 147 235 146 235 146 238 145 238 145 236 144 236 144 238 143 238 143 237 142 237 142 234 141 234 141 238 140 238 140 237 139 237 139 238 138 238 138 237 137 237 137 241 128 241 128 243 251 243 251 241 240 241"/><circle class="cls-1" cx="102" cy="115" r="7"/><circle class="cls-2" cx="102" cy="115" r="5"/><path class="cls-1" d="M108,112.5a.5.5,0,0,1-.5.5h-6a.5.5,0,0,1-.5-.5h0a.5.5,0,0,1,.5-.5h6a.5.5,0,0,1,.5.5Z"/><path class="cls-1" d="M108,116.5a.5.5,0,0,1-.5.5h-3a.5.5,0,0,1-.5-.5h0a.5.5,0,0,1,.5-.5h3a.5.5,0,0,1,.5.5Z"/><path class="cls-1" d="M106,119.5a.5.5,0,0,1-.5.5h-4a.5.5,0,0,1-.5-.5h0a.5.5,0,0,1,.5-.5h4a.5.5,0,0,1,.5.5Z"/><path class="cls-1" d="M100,117.5a.5.5,0,0,1-.5.5h-3a.5.5,0,0,1-.5-.5h0a.5.5,0,0,1,.5-.5h3a.5.5,0,0,1,.5.5Z"/><path class="cls-1" d="M101,114.5a.5.5,0,0,1-.5.5h-4a.5.5,0,0,1-.5-.5h0a.5.5,0,0,1,.5-.5h4a.5.5,0,0,1,.5.5Z"/><path class="cls-1" d="M101,110.5a.5.5,0,0,1-.5.5h-2a.5.5,0,0,1-.5-.5h0a.5.5,0,0,1,.5-.5h2a.5.5,0,0,1,.5.5Z"/><path class="cls-1" d="M93,162c-4.31,0-8-5.5-8-10a8,8,0,0,1,12.45-6.65A8,8,0,0,1,113,148l.14.14,1.51-.11c.44,0,1,0,1.24,0H117c3.3,0,6,3.89,6,3.89l2.11.08.89,0a5,5,0,0,1,5,5c0,2.77-3.28,5-6,5Z"/><path class="cls-2" d="M126,154c-.37,0-.71,0-1,0v0a2,2,0,0,1-4,0,4,4,0,0,0-4-4h-1.11c-.21,0-.7,0-1.09,0a9.9,9.9,0,0,1-.57,1.83,2,2,0,0,1-3.84-.77A6.44,6.44,0,0,1,111,148a6,6,0,0,0-11.66-2,2,2,0,0,1-3,1A6,6,0,0,0,87,152c0,3.49,2.91,8,6,8h32c1.91,0,4-1.57,4-3A3,3,0,0,0,126,154Z"/><circle class="cls-1" cx="232.07" cy="45.92" r="16"/><path class="cls-2" d="M246.07,45.92a14,14,0,1,1-14-14A14,14,0,0,1,246.07,45.92Z"/><path class="cls-1" d="M237.28,30.81,217,51.13a15.94,15.94,0,0,0,1.88,3.78l2.64-2.64a5,5,0,0,1,5.62-5.62l14-14A15.94,15.94,0,0,0,237.28,30.81Z"/><circle class="cls-1" cx="226.41" cy="51.58" r="3" transform="translate(29.85 175.21) rotate(-45)"/><path class="cls-1" d="M231.72,49.1l-.65.65a5,5,0,0,1-6.47,6.47l-1.36,1.36a2.48,2.48,0,0,0-.66,1.19A15.93,15.93,0,0,0,226.86,61l8.4-8.4a2.5,2.5,0,1,0-3.54-3.54Z"/><path class="cls-1" d="M246.8,39.67l-4.26,4.26a3,3,0,0,1-4,4l-.13.13a2,2,0,1,0,2.83,2.83L248,44.16A15.9,15.9,0,0,0,246.8,39.67Z"/><circle class="cls-1" cx="239.85" cy="45.21" r="2" transform="translate(38.28 182.84) rotate(-45)"/><path class="cls-1" d="M234.89,30.18a16,16,0,0,0-2.82-.26c-.35,0-.68,0-1,.05l-5,5a1.5,1.5,0,0,0,2.12,2.12l6.36-6.36A1.49,1.49,0,0,0,234.89,30.18Z"/><path class="cls-1" d="M313,168a8,8,0,0,1,0-16h0a10,10,0,0,1,15.85-.17,8.49,8.49,0,0,1,12.07,6.56A5,5,0,0,1,339,168Z"/><path class="cls-2" d="M339,160h0c0-.17,0-.33,0-.5a6.49,6.49,0,0,0-10.77-4.9,8,8,0,0,0-14.21-.51A6,6,0,1,0,313,166h26a3,3,0,0,0,0-6Z"/></g></g></svg>